<mxfile host="app.diagrams.net" modified="2024-05-31T13:21:26.302Z" agent="Mozilla/5.0 (Macintosh; Intel Mac OS X 10_15_7) AppleWebKit/537.36 (KHTML, like Gecko) Chrome/125.0.0.0 Safari/537.36" etag="MnWPJ8OnwTPA-3QyvFfB" version="24.4.10" type="github">
  <diagram name="Page-1" id="74e2e168-ea6b-b213-b513-2b3c1d86103e">
    <mxGraphModel dx="855" dy="571" grid="1" gridSize="10" guides="1" tooltips="1" connect="1" arrows="1" fold="1" page="1" pageScale="1" pageWidth="1100" pageHeight="850" background="none" math="0" shadow="0">
      <root>
        <mxCell id="0" />
        <mxCell id="1" parent="0" />
        <mxCell id="77e6c97f196da883-1" value="" style="swimlane;html=1;childLayout=stackLayout;startSize=0;rounded=0;shadow=0;labelBackgroundColor=none;strokeWidth=1;fontFamily=Verdana;fontSize=8;align=center;" parent="1" vertex="1">
          <mxGeometry x="60" y="30" width="530" height="750" as="geometry">
            <mxRectangle x="60" y="30" width="50" height="40" as="alternateBounds" />
          </mxGeometry>
        </mxCell>
        <mxCell id="77e6c97f196da883-2" value="Web2" style="swimlane;html=1;startSize=20;" parent="77e6c97f196da883-1" vertex="1">
          <mxGeometry width="270" height="750" as="geometry" />
        </mxCell>
        <mxCell id="4_8_YsdXwDulvL1z5AfN-5" style="edgeStyle=orthogonalEdgeStyle;rounded=0;orthogonalLoop=1;jettySize=auto;html=1;entryX=0.5;entryY=0;entryDx=0;entryDy=0;" parent="77e6c97f196da883-2" source="77e6c97f196da883-8" target="4_8_YsdXwDulvL1z5AfN-4" edge="1">
          <mxGeometry relative="1" as="geometry" />
        </mxCell>
        <mxCell id="77e6c97f196da883-8" value="" style="rounded=1;whiteSpace=wrap;html=1;shadow=0;labelBackgroundColor=none;strokeWidth=1;fontFamily=Verdana;fontSize=8;align=center;" parent="77e6c97f196da883-2" vertex="1">
          <mxGeometry x="20" y="65" width="100" height="60" as="geometry" />
        </mxCell>
        <mxCell id="77e6c97f196da883-9" value="&lt;font style=&quot;font-size: 12px;&quot;&gt;Extension&lt;/font&gt;" style="rounded=1;whiteSpace=wrap;html=1;shadow=0;labelBackgroundColor=none;strokeWidth=1;fontFamily=Verdana;fontSize=8;align=center;" parent="77e6c97f196da883-2" vertex="1">
          <mxGeometry x="20" y="310" width="100" height="60" as="geometry" />
        </mxCell>
        <mxCell id="4_8_YsdXwDulvL1z5AfN-1" value="" style="shape=image;html=1;verticalAlign=top;verticalLabelPosition=bottom;labelBackgroundColor=#ffffff;imageAspect=0;aspect=fixed;image=https://cdn2.iconfinder.com/data/icons/social-media-2189/48/21-Gmail-128.png" parent="77e6c97f196da883-2" vertex="1">
          <mxGeometry x="30" y="65" width="28" height="28" as="geometry" />
        </mxCell>
        <mxCell id="4_8_YsdXwDulvL1z5AfN-3" value="" style="shape=image;html=1;verticalAlign=top;verticalLabelPosition=bottom;labelBackgroundColor=#ffffff;imageAspect=0;aspect=fixed;image=https://cdn3.iconfinder.com/data/icons/2018-social-media-logotypes/1000/2018_social_media_popular_app_logo_facebook-128.png" parent="77e6c97f196da883-2" vertex="1">
          <mxGeometry x="75" y="75" width="28" height="28" as="geometry" />
        </mxCell>
        <mxCell id="4_8_YsdXwDulvL1z5AfN-4" value="zklogin" style="shape=parallelogram;perimeter=parallelogramPerimeter;whiteSpace=wrap;html=1;fixedSize=1;" parent="77e6c97f196da883-2" vertex="1">
          <mxGeometry x="10" y="180" width="120" height="60" as="geometry" />
        </mxCell>
        <mxCell id="4_8_YsdXwDulvL1z5AfN-10" value="&amp;nbsp;Data Capture/&lt;br&gt;&amp;nbsp;Data Mining" style="strokeWidth=2;html=1;shape=mxgraph.flowchart.direct_data;whiteSpace=wrap;align=left;" parent="77e6c97f196da883-2" vertex="1">
          <mxGeometry x="150" y="310" width="100" height="60" as="geometry" />
        </mxCell>
        <mxCell id="4_8_YsdXwDulvL1z5AfN-11" style="edgeStyle=orthogonalEdgeStyle;rounded=0;orthogonalLoop=1;jettySize=auto;html=1;entryX=0;entryY=0.5;entryDx=0;entryDy=0;entryPerimeter=0;" parent="77e6c97f196da883-2" source="77e6c97f196da883-9" target="4_8_YsdXwDulvL1z5AfN-10" edge="1">
          <mxGeometry relative="1" as="geometry" />
        </mxCell>
        <mxCell id="n2IcnooiylrehTobB_rR-1" style="edgeStyle=orthogonalEdgeStyle;rounded=0;orthogonalLoop=1;jettySize=auto;html=1;endArrow=none;endFill=0;" parent="77e6c97f196da883-2" source="4_8_YsdXwDulvL1z5AfN-48" edge="1">
          <mxGeometry relative="1" as="geometry">
            <mxPoint x="140" y="340" as="targetPoint" />
          </mxGeometry>
        </mxCell>
        <mxCell id="4_8_YsdXwDulvL1z5AfN-48" value="&lt;font style=&quot;font-size: 12px;&quot;&gt;Real World Assets&lt;/font&gt;" style="rounded=1;whiteSpace=wrap;html=1;shadow=0;labelBackgroundColor=none;strokeWidth=1;fontFamily=Verdana;fontSize=8;align=center;" parent="77e6c97f196da883-2" vertex="1">
          <mxGeometry x="20" y="440" width="100" height="60" as="geometry" />
        </mxCell>
        <mxCell id="xQqZ1ZhzJ-ZLR__xCfcE-3" value="" style="shape=image;html=1;verticalAlign=top;verticalLabelPosition=bottom;labelBackgroundColor=#ffffff;imageAspect=0;aspect=fixed;image=https://cdn0.iconfinder.com/data/icons/social-network-9/50/16-128.png" vertex="1" parent="77e6c97f196da883-2">
          <mxGeometry x="30" y="93" width="28" height="28" as="geometry" />
        </mxCell>
        <mxCell id="77e6c97f196da883-3" value="&lt;span style=&quot;font-family: Verdana;&quot;&gt;&lt;font style=&quot;font-size: 12px;&quot;&gt;CommuSui&lt;/font&gt;&lt;/span&gt;" style="swimlane;html=1;startSize=20;" parent="77e6c97f196da883-1" vertex="1">
          <mxGeometry x="270" width="260" height="750" as="geometry" />
        </mxCell>
        <mxCell id="4_8_YsdXwDulvL1z5AfN-38" style="edgeStyle=orthogonalEdgeStyle;rounded=0;orthogonalLoop=1;jettySize=auto;html=1;" parent="77e6c97f196da883-3" source="77e6c97f196da883-11" target="4_8_YsdXwDulvL1z5AfN-25" edge="1">
          <mxGeometry relative="1" as="geometry">
            <Array as="points">
              <mxPoint x="130" y="120" />
              <mxPoint x="130" y="120" />
            </Array>
          </mxGeometry>
        </mxCell>
        <mxCell id="77e6c97f196da883-11" value="&lt;font style=&quot;font-size: 12px;&quot;&gt;DID&lt;/font&gt;" style="rounded=1;whiteSpace=wrap;html=1;shadow=0;labelBackgroundColor=none;strokeWidth=1;fontFamily=Verdana;fontSize=8;align=center;" parent="77e6c97f196da883-3" vertex="1">
          <mxGeometry x="70" y="65" width="100" height="60" as="geometry" />
        </mxCell>
        <mxCell id="4_8_YsdXwDulvL1z5AfN-25" value="Wrapping" style="shape=parallelogram;perimeter=parallelogramPerimeter;whiteSpace=wrap;html=1;fixedSize=1;" parent="77e6c97f196da883-3" vertex="1">
          <mxGeometry x="70" y="310" width="120" height="60" as="geometry" />
        </mxCell>
        <mxCell id="4_8_YsdXwDulvL1z5AfN-34" style="edgeStyle=orthogonalEdgeStyle;rounded=0;orthogonalLoop=1;jettySize=auto;html=1;" parent="77e6c97f196da883-3" source="4_8_YsdXwDulvL1z5AfN-25" edge="1">
          <mxGeometry relative="1" as="geometry">
            <mxPoint x="130" y="390" as="targetPoint" />
          </mxGeometry>
        </mxCell>
        <mxCell id="4_8_YsdXwDulvL1z5AfN-35" value="Locked Asset" style="shape=umlFrame;whiteSpace=wrap;html=1;pointerEvents=0;recursiveResize=0;container=1;collapsible=0;width=100;height=20;" parent="77e6c97f196da883-3" vertex="1">
          <mxGeometry x="10" y="440" width="230" height="100" as="geometry" />
        </mxCell>
        <mxCell id="4_8_YsdXwDulvL1z5AfN-43" value="&lt;span style=&quot;text-wrap: nowrap;&quot;&gt;&lt;font style=&quot;font-size: 10px;&quot;&gt;Data Assets&lt;/font&gt;&lt;/span&gt;" style="strokeWidth=2;html=1;shape=mxgraph.flowchart.stored_data;whiteSpace=wrap;" parent="4_8_YsdXwDulvL1z5AfN-35" vertex="1">
          <mxGeometry x="10" y="40" width="70" height="50" as="geometry" />
        </mxCell>
        <mxCell id="4_8_YsdXwDulvL1z5AfN-46" value="&lt;span style=&quot;text-wrap: nowrap;&quot;&gt;&lt;font style=&quot;font-size: 10px;&quot;&gt;Wrapped&amp;nbsp;&lt;/font&gt;&lt;/span&gt;&lt;div&gt;&lt;span style=&quot;text-wrap: nowrap;&quot;&gt;&lt;font style=&quot;font-size: 10px;&quot;&gt;Assets&lt;/font&gt;&lt;/span&gt;&lt;br style=&quot;text-wrap: nowrap;&quot;&gt;&lt;/div&gt;" style="strokeWidth=2;html=1;shape=mxgraph.flowchart.stored_data;whiteSpace=wrap;" parent="4_8_YsdXwDulvL1z5AfN-35" vertex="1">
          <mxGeometry x="82" y="40" width="70" height="50" as="geometry" />
        </mxCell>
        <mxCell id="4_8_YsdXwDulvL1z5AfN-47" value="&lt;span style=&quot;text-wrap: nowrap;&quot;&gt;RWA&lt;/span&gt;&lt;br&gt;&lt;span style=&quot;text-wrap: nowrap;&quot;&gt;&lt;font style=&quot;font-size: 11px;&quot;&gt;tokenization&lt;/font&gt;&lt;/span&gt;" style="strokeWidth=2;html=1;shape=mxgraph.flowchart.stored_data;whiteSpace=wrap;" parent="4_8_YsdXwDulvL1z5AfN-35" vertex="1">
          <mxGeometry x="155" y="40" width="70" height="50" as="geometry" />
        </mxCell>
        <mxCell id="4_8_YsdXwDulvL1z5AfN-41" value="&lt;div&gt;Signature packing&lt;/div&gt;" style="text;html=1;align=center;verticalAlign=middle;resizable=0;points=[];autosize=1;strokeColor=none;fillColor=none;" parent="77e6c97f196da883-3" vertex="1">
          <mxGeometry x="-28" y="305" width="120" height="30" as="geometry" />
        </mxCell>
        <mxCell id="4_8_YsdXwDulvL1z5AfN-55" value="&lt;font style=&quot;font-size: 10px;&quot;&gt;Liquidity Protocol&lt;/font&gt;" style="shape=tape;whiteSpace=wrap;html=1;strokeWidth=2;size=0.19" parent="77e6c97f196da883-3" vertex="1">
          <mxGeometry x="75" y="574" width="95" height="46" as="geometry" />
        </mxCell>
        <mxCell id="4_8_YsdXwDulvL1z5AfN-59" style="edgeStyle=orthogonalEdgeStyle;rounded=0;orthogonalLoop=1;jettySize=auto;html=1;entryX=0.52;entryY=0.062;entryDx=0;entryDy=0;entryPerimeter=0;" parent="77e6c97f196da883-3" source="4_8_YsdXwDulvL1z5AfN-46" target="4_8_YsdXwDulvL1z5AfN-55" edge="1">
          <mxGeometry relative="1" as="geometry">
            <Array as="points">
              <mxPoint x="124" y="552" />
              <mxPoint x="124" y="552" />
            </Array>
          </mxGeometry>
        </mxCell>
        <mxCell id="4_8_YsdXwDulvL1z5AfN-60" style="edgeStyle=orthogonalEdgeStyle;rounded=0;orthogonalLoop=1;jettySize=auto;html=1;entryX=0.521;entryY=0.059;entryDx=0;entryDy=0;entryPerimeter=0;" parent="77e6c97f196da883-3" source="4_8_YsdXwDulvL1z5AfN-47" target="4_8_YsdXwDulvL1z5AfN-55" edge="1">
          <mxGeometry relative="1" as="geometry" />
        </mxCell>
        <mxCell id="4_8_YsdXwDulvL1z5AfN-77" style="edgeStyle=orthogonalEdgeStyle;rounded=0;orthogonalLoop=1;jettySize=auto;html=1;dashed=1;dashPattern=1 2;endArrow=none;endFill=0;" parent="77e6c97f196da883-3" source="4_8_YsdXwDulvL1z5AfN-63" edge="1">
          <mxGeometry relative="1" as="geometry">
            <mxPoint x="250" y="590" as="targetPoint" />
          </mxGeometry>
        </mxCell>
        <mxCell id="4_8_YsdXwDulvL1z5AfN-63" value="&lt;font style=&quot;font-size: 10px;&quot;&gt;Depin&lt;/font&gt;" style="shape=tape;whiteSpace=wrap;html=1;strokeWidth=2;size=0.19" parent="77e6c97f196da883-3" vertex="1">
          <mxGeometry x="77.5" y="620" width="95" height="46" as="geometry" />
        </mxCell>
        <mxCell id="4_8_YsdXwDulvL1z5AfN-78" style="edgeStyle=orthogonalEdgeStyle;rounded=0;orthogonalLoop=1;jettySize=auto;html=1;endArrow=none;endFill=0;dashed=1;dashPattern=1 2;" parent="77e6c97f196da883-3" source="4_8_YsdXwDulvL1z5AfN-64" edge="1">
          <mxGeometry relative="1" as="geometry">
            <mxPoint x="250" y="640" as="targetPoint" />
          </mxGeometry>
        </mxCell>
        <mxCell id="4_8_YsdXwDulvL1z5AfN-64" value="&lt;span style=&quot;font-size: 10px;&quot;&gt;Decentralized AI&lt;/span&gt;" style="shape=tape;whiteSpace=wrap;html=1;strokeWidth=2;size=0.19" parent="77e6c97f196da883-3" vertex="1">
          <mxGeometry x="77.5" y="666" width="95" height="46" as="geometry" />
        </mxCell>
        <mxCell id="4_8_YsdXwDulvL1z5AfN-65" style="edgeStyle=orthogonalEdgeStyle;rounded=0;orthogonalLoop=1;jettySize=auto;html=1;entryX=0;entryY=0.65;entryDx=0;entryDy=0;entryPerimeter=0;" parent="77e6c97f196da883-3" source="4_8_YsdXwDulvL1z5AfN-43" target="4_8_YsdXwDulvL1z5AfN-63" edge="1">
          <mxGeometry relative="1" as="geometry" />
        </mxCell>
        <mxCell id="4_8_YsdXwDulvL1z5AfN-66" style="edgeStyle=orthogonalEdgeStyle;rounded=0;orthogonalLoop=1;jettySize=auto;html=1;entryX=0;entryY=0.5;entryDx=0;entryDy=0;entryPerimeter=0;" parent="77e6c97f196da883-3" source="4_8_YsdXwDulvL1z5AfN-43" target="4_8_YsdXwDulvL1z5AfN-64" edge="1">
          <mxGeometry relative="1" as="geometry" />
        </mxCell>
        <mxCell id="4_8_YsdXwDulvL1z5AfN-80" style="edgeStyle=orthogonalEdgeStyle;rounded=0;orthogonalLoop=1;jettySize=auto;html=1;entryX=1;entryY=0.5;entryDx=0;entryDy=0;" parent="77e6c97f196da883-3" source="4_8_YsdXwDulvL1z5AfN-71" target="77e6c97f196da883-11" edge="1">
          <mxGeometry relative="1" as="geometry" />
        </mxCell>
        <mxCell id="4_8_YsdXwDulvL1z5AfN-71" value="&lt;div&gt;Reputation System&lt;/div&gt;" style="shape=process;whiteSpace=wrap;html=1;backgroundOutline=1;" parent="77e6c97f196da883-3" vertex="1">
          <mxGeometry x="130" y="140" width="120" height="60" as="geometry" />
        </mxCell>
        <mxCell id="4_8_YsdXwDulvL1z5AfN-79" style="edgeStyle=orthogonalEdgeStyle;rounded=0;orthogonalLoop=1;jettySize=auto;html=1;entryX=0.5;entryY=1;entryDx=0;entryDy=0;" parent="77e6c97f196da883-3" source="4_8_YsdXwDulvL1z5AfN-72" target="4_8_YsdXwDulvL1z5AfN-71" edge="1">
          <mxGeometry relative="1" as="geometry" />
        </mxCell>
        <mxCell id="4_8_YsdXwDulvL1z5AfN-72" value="Paillier" style="rounded=1;whiteSpace=wrap;html=1;" parent="77e6c97f196da883-3" vertex="1">
          <mxGeometry x="140" y="220" width="100" height="30" as="geometry" />
        </mxCell>
        <mxCell id="4_8_YsdXwDulvL1z5AfN-75" style="edgeStyle=orthogonalEdgeStyle;rounded=0;orthogonalLoop=1;jettySize=auto;html=1;entryX=0.6;entryY=1.033;entryDx=0;entryDy=0;entryPerimeter=0;dashed=1;dashPattern=1 2;" parent="77e6c97f196da883-3" source="4_8_YsdXwDulvL1z5AfN-55" target="4_8_YsdXwDulvL1z5AfN-72" edge="1">
          <mxGeometry relative="1" as="geometry">
            <Array as="points">
              <mxPoint x="250" y="597" />
              <mxPoint x="250" y="412" />
              <mxPoint x="200" y="412" />
            </Array>
          </mxGeometry>
        </mxCell>
        <mxCell id="4_8_YsdXwDulvL1z5AfN-82" value="&lt;font style=&quot;font-size: 10px;&quot;&gt;Personas&lt;/font&gt;" style="text;html=1;align=center;verticalAlign=middle;resizable=0;points=[];autosize=1;strokeColor=none;fillColor=none;" parent="77e6c97f196da883-3" vertex="1">
          <mxGeometry x="30" y="200" width="70" height="30" as="geometry" />
        </mxCell>
        <mxCell id="4_8_YsdXwDulvL1z5AfN-39" value="Access Control&amp;nbsp;" style="text;html=1;align=center;verticalAlign=middle;resizable=0;points=[];autosize=1;strokeColor=none;fillColor=none;" parent="77e6c97f196da883-3" vertex="1">
          <mxGeometry x="110" y="268" width="110" height="30" as="geometry" />
        </mxCell>
        <mxCell id="xQqZ1ZhzJ-ZLR__xCfcE-1" value="&lt;font style=&quot;font-size: 9px;&quot;&gt;Atomic Swap&lt;/font&gt;" style="shape=parallelogram;perimeter=parallelogramPerimeter;whiteSpace=wrap;html=1;fixedSize=1;" vertex="1" parent="77e6c97f196da883-3">
          <mxGeometry x="87.5" y="390" width="82.5" height="30" as="geometry" />
        </mxCell>
        <mxCell id="xQqZ1ZhzJ-ZLR__xCfcE-2" style="edgeStyle=orthogonalEdgeStyle;rounded=0;orthogonalLoop=1;jettySize=auto;html=1;exitX=0.5;exitY=1;exitDx=0;exitDy=0;entryX=0.514;entryY=0.001;entryDx=0;entryDy=0;entryPerimeter=0;" edge="1" parent="77e6c97f196da883-3" source="xQqZ1ZhzJ-ZLR__xCfcE-1" target="4_8_YsdXwDulvL1z5AfN-35">
          <mxGeometry relative="1" as="geometry" />
        </mxCell>
        <mxCell id="4_8_YsdXwDulvL1z5AfN-6" style="edgeStyle=orthogonalEdgeStyle;rounded=0;orthogonalLoop=1;jettySize=auto;html=1;entryX=0;entryY=0.5;entryDx=0;entryDy=0;" parent="77e6c97f196da883-1" source="4_8_YsdXwDulvL1z5AfN-4" target="77e6c97f196da883-11" edge="1">
          <mxGeometry relative="1" as="geometry">
            <Array as="points">
              <mxPoint x="230" y="230" />
              <mxPoint x="230" y="95" />
            </Array>
          </mxGeometry>
        </mxCell>
        <mxCell id="4_8_YsdXwDulvL1z5AfN-9" style="edgeStyle=orthogonalEdgeStyle;rounded=0;orthogonalLoop=1;jettySize=auto;html=1;entryX=0.5;entryY=0;entryDx=0;entryDy=0;" parent="77e6c97f196da883-1" source="77e6c97f196da883-11" target="77e6c97f196da883-9" edge="1">
          <mxGeometry relative="1" as="geometry">
            <Array as="points">
              <mxPoint x="390" y="280" />
              <mxPoint x="70" y="280" />
            </Array>
          </mxGeometry>
        </mxCell>
        <mxCell id="4_8_YsdXwDulvL1z5AfN-26" style="edgeStyle=orthogonalEdgeStyle;rounded=0;orthogonalLoop=1;jettySize=auto;html=1;entryX=0;entryY=0.5;entryDx=0;entryDy=0;" parent="77e6c97f196da883-1" source="4_8_YsdXwDulvL1z5AfN-10" target="4_8_YsdXwDulvL1z5AfN-25" edge="1">
          <mxGeometry relative="1" as="geometry" />
        </mxCell>
        <mxCell id="4_8_YsdXwDulvL1z5AfN-51" style="edgeStyle=orthogonalEdgeStyle;rounded=0;orthogonalLoop=1;jettySize=auto;html=1;entryX=0;entryY=0.5;entryDx=0;entryDy=0;" parent="77e6c97f196da883-1" source="4_8_YsdXwDulvL1z5AfN-48" target="4_8_YsdXwDulvL1z5AfN-25" edge="1">
          <mxGeometry relative="1" as="geometry">
            <Array as="points">
              <mxPoint x="260" y="490" />
              <mxPoint x="260" y="360" />
              <mxPoint x="330" y="360" />
              <mxPoint x="330" y="340" />
            </Array>
          </mxGeometry>
        </mxCell>
        <mxCell id="4_8_YsdXwDulvL1z5AfN-52" style="edgeStyle=orthogonalEdgeStyle;rounded=0;orthogonalLoop=1;jettySize=auto;html=1;entryX=0;entryY=0.5;entryDx=0;entryDy=0;" parent="77e6c97f196da883-1" source="77e6c97f196da883-11" target="4_8_YsdXwDulvL1z5AfN-48" edge="1">
          <mxGeometry relative="1" as="geometry">
            <Array as="points">
              <mxPoint x="390" y="280" />
              <mxPoint x="10" y="280" />
            </Array>
          </mxGeometry>
        </mxCell>
        <mxCell id="4_8_YsdXwDulvL1z5AfN-74" style="edgeStyle=orthogonalEdgeStyle;rounded=0;orthogonalLoop=1;jettySize=auto;html=1;entryX=0;entryY=0.5;entryDx=0;entryDy=0;dashed=1;dashPattern=1 2;" parent="77e6c97f196da883-1" source="4_8_YsdXwDulvL1z5AfN-4" target="4_8_YsdXwDulvL1z5AfN-72" edge="1">
          <mxGeometry relative="1" as="geometry">
            <Array as="points">
              <mxPoint x="230" y="230" />
              <mxPoint x="230" y="235" />
            </Array>
          </mxGeometry>
        </mxCell>
        <mxCell id="4_8_YsdXwDulvL1z5AfN-40" value="&lt;div&gt;Signature login&lt;/div&gt;" style="text;html=1;align=center;verticalAlign=middle;resizable=0;points=[];autosize=1;strokeColor=none;fillColor=none;" parent="1" vertex="1">
          <mxGeometry x="235" y="282" width="100" height="30" as="geometry" />
        </mxCell>
        <mxCell id="4_8_YsdXwDulvL1z5AfN-81" value="&lt;div style=&quot;font-size: 11px;&quot;&gt;&lt;font style=&quot;font-size: 11px;&quot;&gt;User&lt;/font&gt;&lt;/div&gt;&lt;div style=&quot;font-size: 11px;&quot;&gt;&lt;font style=&quot;font-size: 11px;&quot;&gt;&amp;nbsp;Behaviors&lt;/font&gt;&lt;/div&gt;" style="text;html=1;align=center;verticalAlign=middle;resizable=0;points=[];autosize=1;strokeColor=none;fillColor=none;" parent="1" vertex="1">
          <mxGeometry x="500" y="653" width="80" height="40" as="geometry" />
        </mxCell>
      </root>
    </mxGraphModel>
  </diagram>
</mxfile>
